<svg version="1.0" xmlns="http://www.w3.org/2000/svg"
 width="2000.000000pt" height="1125.000000pt" viewBox="0 0 2000.000000 1125.000000"
 preserveAspectRatio="xMidYMid meet">

<g transform="translate(0.000000,1125.000000) scale(0.100000,-0.100000)"
fill="#000000" stroke="none">
<path d="M7510 8020 c-201 -4 -421 -10 -490 -14 -1241 -70 -1867 -282 -2620
-887 -285 -228 -466 -396 -1035 -959 -1206 -1193 -2945 -2924 -2945 -2931 0
-5 601 -9 1346 -9 l1346 0 371 363 c751 731 1724 1669 1957 1885 566 524 899
669 1695 739 171 15 535 17 3737 22 l3548 6 895 895 c492 492 895 896 895 897
0 6 -8365 -1 -8700 -7z"/>
<path d="M14330 5630 c-1320 -1319 -2400 -2402 -2400 -2405 0 -3 647 -5 1438
-5 l1437 0 2405 2405 2405 2405 -1443 0 -1443 0 -2399 -2400z"/>
<path d="M7444 5919 c-679 -29 -1061 -124 -1399 -346 -223 -147 -302 -222
-1752 -1667 -370 -369 -673 -674 -673 -678 0 -4 563 -8 1252 -8 l1251 0 391
388 c408 405 471 459 626 531 88 41 222 77 360 98 106 16 309 17 2530 20
l2415 3 835 835 835 835 -3250 -2 c-1787 0 -3327 -4 -3421 -9z"/>
<path d="M16032 3778 l3 -43 92 -3 93 -3 2 -252 3 -252 50 0 50 0 3 252 2 252
93 3 92 3 3 43 3 42 -246 0 -246 0 3 -42z"/>
<path d="M16590 3519 l0 -300 48 3 47 3 0 228 c0 125 2 227 5 227 3 0 41 -103
85 -228 l81 -227 43 0 42 0 65 180 c36 99 72 203 82 230 l17 50 5 -230 5 -230
48 -3 47 -3 0 300 0 301 -74 0 -73 0 -79 -230 c-68 -200 -94 -260 -94 -220 0
6 -35 110 -77 230 l-77 220 -73 0 -73 0 0 -301z"/>
</g>
</svg>
